<svg xmlns="http://www.w3.org/2000/svg" fill="none" viewBox="0 0 140 140">
  <path fill="#000" fill-opacity=".88" d="M4.827 0H0v4.828h4.827V0Zm4.828 0H4.828v4.828h4.827V0Z"/>
  <path fill="#000" fill-opacity=".88" d="M14.483 0H9.655v4.828h4.828V0Z"/>
  <path fill="#000" fill-opacity=".88" d="M19.31 0h-4.827v4.828h4.827V0Zm4.828 0H19.31v4.828h4.828V0Zm4.827 0h-4.827v4.828h4.827V0Zm4.828 0h-4.828v4.828h4.828V0Zm9.655 0h-4.827v4.828h4.827V0Zm9.655 0h-4.827v4.828h4.827V0Zm9.655 0h-4.827v4.828h4.828V0Zm14.483 0h-4.827v4.828h4.827V0Z"/>
  <path fill="#000" fill-opacity=".88" d="M82.069 0H77.24v4.828h4.828V0Zm4.828 0h-4.828v4.828h4.828V0Z"/>
  <path fill="#000" fill-opacity=".88" d="M91.724 0h-4.828v4.828h4.828V0Zm4.828 0h-4.828v4.828h4.828V0Zm4.827 0h-4.827v4.828h4.827V0Zm9.655 0h-4.827v4.828h4.827V0Z"/>
  <path fill="#000" fill-opacity=".88" d="M115.862 0h-4.828v4.828h4.828V0Zm4.828 0h-4.828v4.828h4.828V0Zm4.827 0h-4.827v4.828h4.827V0Zm4.828 0h-4.828v4.828h4.828V0Zm4.827 0h-4.827v4.828h4.827V0ZM140 0h-4.828v4.828H140V0ZM4.827 4.828H0v4.827h4.827V4.828Zm28.966 0h-4.828v4.827h4.828V4.828Zm14.483 0h-4.828v4.827h4.828V4.828Zm9.654 0h-4.827v4.827h4.828V4.828Zm4.828 0h-4.827v4.827h4.828V4.828Zm9.656 0h-4.828v4.827h4.828V4.828Zm14.483 0h-4.828v4.827h4.828V4.828Z"/>
  <path fill="#000" fill-opacity=".88" d="M91.724 4.828h-4.828v4.827h4.828V4.828Zm4.828 0h-4.828v4.827h4.828V4.828Zm4.827 0h-4.827v4.827h4.827V4.828Zm9.655 0h-4.827v4.827h4.827V4.828Zm28.966 0h-4.828v4.827H140V4.828ZM4.827 9.655H0v4.828h4.827V9.655Zm9.656 0H9.655v4.828h4.828V9.655Z"/>
  <path fill="#000" fill-opacity=".88" d="M19.31 9.655h-4.827v4.828h4.827V9.655Zm4.828 0H19.31v4.828h4.828V9.655Zm9.655 0h-4.828v4.828h4.828V9.655Zm14.483 0h-4.828v4.828h4.828V9.655Zm14.482 0h-4.827v4.828h4.828V9.655Z"/>
  <path fill="#000" fill-opacity=".88" d="M67.586 9.655h-4.828v4.828h4.828V9.655Zm9.655 0h-4.827v4.828h4.827V9.655Z"/>
  <path fill="#000" fill-opacity=".88" d="M82.069 9.655H77.24v4.828h4.828V9.655Zm9.655 0h-4.828v4.828h4.828V9.655Zm9.655 0h-4.827v4.828h4.827V9.655Zm9.655 0h-4.827v4.828h4.827V9.655Zm9.656 0h-4.828v4.828h4.828V9.655Zm4.827 0h-4.827v4.828h4.827V9.655Zm4.828 0h-4.828v4.828h4.828V9.655Zm9.655 0h-4.828v4.828H140V9.655ZM4.827 14.483H0v4.828h4.827v-4.828Zm9.656 0H9.655v4.828h4.828v-4.828Z"/>
  <path fill="#000" fill-opacity=".88" d="M19.31 14.483h-4.827v4.828h4.827v-4.828Zm4.828 0H19.31v4.828h4.828v-4.828Zm9.655 0h-4.828v4.828h4.828v-4.828Zm9.655 0h-4.827v4.828h4.827v-4.828Zm4.828 0h-4.828v4.828h4.828v-4.828Zm9.654 0h-4.827v4.828h4.828v-4.828Zm4.828 0h-4.827v4.828h4.828v-4.828Z"/>
  <path fill="#000" fill-opacity=".88" d="M67.586 14.483h-4.828v4.828h4.828v-4.828Zm14.483 0H77.24v4.828h4.828v-4.828Zm4.828 0h-4.828v4.828h4.828v-4.828Z"/>
  <path fill="#000" fill-opacity=".88" d="M91.724 14.483h-4.828v4.828h4.828v-4.828Zm4.828 0h-4.828v4.828h4.828v-4.828Zm14.482 0h-4.827v4.828h4.827v-4.828Zm9.656 0h-4.828v4.828h4.828v-4.828Zm4.827 0h-4.827v4.828h4.827v-4.828Zm4.828 0h-4.828v4.828h4.828v-4.828Zm9.655 0h-4.828v4.828H140v-4.828ZM4.827 19.31H0v4.828h4.827V19.31Zm9.656 0H9.655v4.828h4.828V19.31Z"/>
  <path fill="#000" fill-opacity=".88" d="M19.31 19.31h-4.827v4.828h4.827V19.31Zm4.828 0H19.31v4.828h4.828V19.31Zm9.655 0h-4.828v4.828h4.828V19.31Zm9.655 0h-4.827v4.828h4.827V19.31Zm4.828 0h-4.828v4.828h4.828V19.31Zm4.827 0h-4.827v4.828h4.827V19.31Zm9.655 0h-4.827v4.828h4.828V19.31Zm14.483 0h-4.827v4.828h4.827V19.31Zm9.656 0h-4.828v4.828h4.828V19.31Z"/>
  <path fill="#000" fill-opacity=".88" d="M91.724 19.31h-4.828v4.828h4.828V19.31Zm9.655 0h-4.827v4.828h4.827V19.31Zm9.655 0h-4.827v4.828h4.827V19.31Zm9.656 0h-4.828v4.828h4.828V19.31Zm4.827 0h-4.827v4.828h4.827V19.31Zm4.828 0h-4.828v4.828h4.828V19.31Zm9.655 0h-4.828v4.828H140V19.31ZM4.827 24.138H0v4.828h4.827v-4.828Zm28.966 0h-4.828v4.828h4.828v-4.828Zm9.655 0h-4.827v4.828h4.827v-4.828Zm9.655 0h-4.827v4.828h4.827v-4.828Zm4.827 0h-4.827v4.828h4.828v-4.828Zm19.311 0h-4.827v4.828h4.827v-4.828Z"/>
  <path fill="#000" fill-opacity=".88" d="M82.069 24.138H77.24v4.828h4.828v-4.828Zm14.483 0h-4.828v4.828h4.828v-4.828Zm14.482 0h-4.827v4.828h4.827v-4.828Zm28.966 0h-4.828v4.828H140v-4.828ZM4.827 28.966H0v4.827h4.827v-4.827Zm4.828 0H4.828v4.827h4.827v-4.827Z"/>
  <path fill="#000" fill-opacity=".88" d="M14.483 28.966H9.655v4.827h4.828v-4.827Z"/>
  <path fill="#000" fill-opacity=".88" d="M19.31 28.966h-4.827v4.827h4.827v-4.827Zm4.828 0H19.31v4.827h4.828v-4.827Zm4.827 0h-4.827v4.827h4.827v-4.827Zm4.828 0h-4.828v4.827h4.828v-4.827Zm9.655 0h-4.827v4.827h4.827v-4.827Zm9.655 0h-4.827v4.827h4.827v-4.827Zm9.655 0h-4.827v4.827h4.828v-4.827Zm9.656 0h-4.828v4.827h4.828v-4.827Zm9.655 0H77.24v4.827h4.828v-4.827Zm9.655 0h-4.828v4.827h4.828v-4.827Zm9.655 0h-4.827v4.827h4.827v-4.827Zm9.655 0h-4.827v4.827h4.827v-4.827Z"/>
  <path fill="#000" fill-opacity=".88" d="M115.862 28.966h-4.828v4.827h4.828v-4.827Zm4.828 0h-4.828v4.827h4.828v-4.827Zm4.827 0h-4.827v4.827h4.827v-4.827Zm4.828 0h-4.828v4.827h4.828v-4.827Zm4.827 0h-4.827v4.827h4.827v-4.827Zm4.828 0h-4.828v4.827H140v-4.827Zm-96.552 4.827h-4.827v4.828h4.827v-4.828Zm4.828 0h-4.828v4.828h4.828v-4.828Zm19.31 0h-4.828v4.828h4.828v-4.828Zm28.966 0h-4.828v4.828h4.828v-4.828ZM4.827 38.62H0v4.828h4.827v-4.827Zm4.828 0H4.828v4.828h4.827v-4.827Z"/>
  <path fill="#000" fill-opacity=".88" d="M14.483 38.62H9.655v4.828h4.828v-4.827Zm9.655 0H19.31v4.828h4.828v-4.827Zm9.655 0h-4.828v4.828h4.828v-4.827Zm9.655 0h-4.827v4.828h4.827v-4.827Zm19.31 0h-4.827v4.828h4.828v-4.827Zm28.966 0h-4.828v4.828h4.828v-4.827Zm14.483 0h-4.828v4.828h4.828v-4.827Zm4.827 0h-4.827v4.828h4.827v-4.827Zm4.828 0h-4.828v4.828h4.828v-4.827Zm4.828 0h-4.828v4.828h4.828v-4.827Zm4.827 0h-4.827v4.828h4.827v-4.827Zm14.483 0h-4.828v4.828H140v-4.827ZM9.655 43.448H4.828v4.828h4.827v-4.828Zm9.655 0h-4.827v4.828h4.827v-4.828Zm19.31 0h-4.827v4.828h4.828v-4.828Zm4.828 0h-4.827v4.828h4.827v-4.828Zm19.31 0h-4.827v4.828h4.828v-4.828Z"/>
  <path fill="#000" fill-opacity=".88" d="M67.586 43.448h-4.828v4.828h4.828v-4.828Zm14.483 0H77.24v4.828h4.828v-4.828Zm4.828 0h-4.828v4.828h4.828v-4.828Zm14.482 0h-4.827v4.828h4.827v-4.828Zm33.793 0h-4.827v4.828h4.827v-4.828Zm4.828 0h-4.828v4.828H140v-4.828ZM24.138 48.276H19.31v4.828h4.828v-4.828Z"/>
  <path fill="#000" fill-opacity=".88" d="M28.965 48.276h-4.827v4.828h4.827v-4.828Zm4.828 0h-4.828v4.828h4.828v-4.828Zm4.827 0h-4.827v4.828h4.828v-4.828Zm4.828 0h-4.827v4.828h4.827v-4.828Zm14.482 0h-4.827v4.828h4.828v-4.828Zm4.828 0h-4.827v4.828h4.828v-4.828Z"/>
  <path fill="#000" fill-opacity=".88" d="M67.586 48.276h-4.828v4.828h4.828v-4.828Zm4.828 0h-4.828v4.828h4.828v-4.828Zm9.655 0H77.24v4.828h4.828v-4.828Zm14.483 0h-4.828v4.828h4.828v-4.828Zm14.482 0h-4.827v4.828h4.827v-4.828Zm9.656 0h-4.828v4.828h4.828v-4.828Zm9.655 0h-4.828v4.828h4.828v-4.828Zm9.655 0h-4.828v4.828H140v-4.828ZM4.827 53.104H0v4.827h4.827v-4.827Zm4.828 0H4.828v4.827h4.827v-4.827Z"/>
  <path fill="#000" fill-opacity=".88" d="M14.483 53.104H9.655v4.827h4.828v-4.827Z"/>
  <path fill="#000" fill-opacity=".88" d="M19.31 53.104h-4.827v4.827h4.827v-4.827Zm9.655 0h-4.827v4.827h4.827v-4.827Zm24.138 0h-4.827v4.827h4.827v-4.827Zm4.827 0h-4.827v4.827h4.828v-4.827Zm4.828 0h-4.827v4.827h4.828v-4.827Z"/>
  <path fill="#000" fill-opacity=".88" d="M67.586 53.104h-4.828v4.827h4.828v-4.827Zm9.655 0h-4.827v4.827h4.827v-4.827Zm14.483 0h-4.828v4.827h4.828v-4.827Zm19.31 0h-4.827v4.827h4.827v-4.827Z"/>
  <path fill="#000" fill-opacity=".88" d="M115.862 53.104h-4.828v4.827h4.828v-4.827Zm4.828 0h-4.828v4.827h4.828v-4.827Zm14.482 0h-4.827v4.827h4.827v-4.827ZM14.483 57.931H9.655v4.828h4.828V57.93Z"/>
  <path fill="#000" fill-opacity=".88" d="M19.31 57.931h-4.827v4.828h4.827V57.93Zm4.828 0H19.31v4.828h4.828V57.93Zm4.827 0h-4.827v4.828h4.827V57.93Zm4.828 0h-4.828v4.828h4.828V57.93Zm9.655 0h-4.827v4.828h4.827V57.93Zm9.655 0h-4.827v4.828h4.827V57.93Zm4.827 0h-4.827v4.828h4.828V57.93Zm4.828 0h-4.827v4.828h4.828V57.93Z"/>
  <path fill="#000" fill-opacity=".88" d="M67.586 57.931h-4.828v4.828h4.828V57.93Zm4.828 0h-4.828v4.828h4.828V57.93Zm4.827 0h-4.827v4.828h4.827V57.93Zm9.656 0h-4.828v4.828h4.828V57.93Zm9.655 0h-4.828v4.828h4.828V57.93Zm4.827 0h-4.827v4.828h4.827V57.93Zm14.483 0h-4.828v4.828h4.828V57.93Zm4.828 0h-4.828v4.828h4.828V57.93Zm-82.07 4.828h-4.827v4.827h4.828V62.76Zm4.828 0h-4.827v4.827h4.827V62.76Zm4.828 0h-4.828v4.827h4.828V62.76Zm4.827 0h-4.827v4.827h4.827V62.76Zm4.827 0h-4.827v4.827h4.828V62.76Zm4.828 0h-4.827v4.827h4.828V62.76Z"/>
  <path fill="#000" fill-opacity=".88" d="M67.586 62.759h-4.828v4.827h4.828V62.76Zm4.828 0h-4.828v4.827h4.828V62.76Zm14.483 0h-4.828v4.827h4.828V62.76Zm14.482 0h-4.827v4.827h4.827V62.76Zm19.311 0h-4.828v4.827h4.828V62.76Zm9.655 0h-4.828v4.827h4.828V62.76Zm4.827 0h-4.827v4.827h4.827V62.76ZM24.138 67.586H19.31v4.828h4.828v-4.828Zm9.655 0h-4.828v4.828h4.828v-4.828Zm33.793 0h-4.828v4.828h4.828v-4.828Zm14.483 0H77.24v4.828h4.828v-4.828Zm4.828 0h-4.828v4.828h4.828v-4.828Zm9.655 0h-4.828v4.828h4.828v-4.828Zm4.827 0h-4.827v4.828h4.827v-4.828Z"/>
  <path fill="#000" fill-opacity=".88" d="M106.207 67.586h-4.828v4.828h4.828v-4.828Zm4.827 0h-4.827v4.828h4.827v-4.828Zm4.828 0h-4.828v4.828h4.828v-4.828Zm4.828 0h-4.828v4.828h4.828v-4.828Zm9.655 0h-4.828v4.828h4.828v-4.828ZM4.827 72.414H0v4.828h4.827v-4.828Zm9.656 0H9.655v4.828h4.828v-4.828Zm9.655 0H19.31v4.828h4.828v-4.828Z"/>
  <path fill="#000" fill-opacity=".88" d="M28.965 72.414h-4.827v4.828h4.827v-4.828Zm9.655 0h-4.827v4.828h4.828v-4.828Zm14.483 0h-4.827v4.828h4.827v-4.828Zm9.655 0h-4.827v4.828h4.828v-4.828Zm14.483 0h-4.827v4.828h4.827v-4.828Zm14.483 0h-4.828v4.828h4.828v-4.828Zm9.655 0h-4.827v4.828h4.827v-4.828Zm14.483 0h-4.828v4.828h4.828v-4.828Zm14.483 0h-4.828v4.828h4.828v-4.828Zm4.827 0h-4.827v4.828h4.827v-4.828ZM4.827 77.242H0v4.827h4.827v-4.828Zm4.828 0H4.828v4.827h4.827v-4.828Z"/>
  <path fill="#000" fill-opacity=".88" d="M14.483 77.242H9.655v4.827h4.828v-4.828Z"/>
  <path fill="#000" fill-opacity=".88" d="M19.31 77.242h-4.827v4.827h4.827v-4.828Zm4.828 0H19.31v4.827h4.828v-4.828Zm4.827 0h-4.827v4.827h4.827v-4.828Zm4.828 0h-4.828v4.827h4.828v-4.828Zm4.827 0h-4.827v4.827h4.828v-4.828Zm9.656 0h-4.828v4.827h4.828v-4.828Zm4.827 0h-4.827v4.827h4.827v-4.828Zm4.827 0h-4.827v4.827h4.828v-4.828Zm4.828 0h-4.827v4.827h4.828v-4.828Z"/>
  <path fill="#000" fill-opacity=".88" d="M67.586 77.242h-4.828v4.827h4.828v-4.828Zm4.828 0h-4.828v4.827h4.828v-4.828Zm9.655 0H77.24v4.827h4.828v-4.828Zm4.828 0h-4.828v4.827h4.828v-4.828Zm14.482 0h-4.827v4.827h4.827v-4.828Zm19.311 0h-4.828v4.827h4.828v-4.828ZM9.655 82.07H4.828v4.827h4.827v-4.828Zm9.655 0h-4.827v4.827h4.827v-4.828Zm4.828 0H19.31v4.827h4.828v-4.828Zm19.31 0h-4.827v4.827h4.827v-4.828Zm4.828 0h-4.828v4.827h4.828v-4.828Zm9.654 0h-4.827v4.827h4.828v-4.828Z"/>
  <path fill="#000" fill-opacity=".88" d="M67.586 82.07h-4.828v4.827h4.828v-4.828Zm33.793 0h-4.827v4.827h4.827v-4.828Zm14.483 0h-4.828v4.827h4.828v-4.828Zm14.483 0h-4.828v4.827h4.828v-4.828ZM4.827 86.897H0v4.827h4.827v-4.827Zm9.656 0H9.655v4.827h4.828v-4.827Zm9.655 0H19.31v4.827h4.828v-4.827Zm4.827 0h-4.827v4.827h4.827v-4.827Zm4.828 0h-4.828v4.827h4.828v-4.827Zm14.483 0h-4.828v4.827h4.828v-4.827Zm19.31 0h-4.828v4.827h4.828v-4.827Zm14.483 0H77.24v4.827h4.828v-4.827Zm4.828 0h-4.828v4.827h4.828v-4.827Zm9.655 0h-4.828v4.827h4.828v-4.827Zm9.655 0h-4.828v4.827h4.828v-4.827Zm4.827 0h-4.827v4.827h4.827v-4.827Z"/>
  <path fill="#000" fill-opacity=".88" d="M115.862 86.897h-4.828v4.827h4.828v-4.827Zm14.483 0h-4.828v4.827h4.828v-4.827Zm4.827 0h-4.827v4.827h4.827v-4.827Zm4.828 0h-4.828v4.827H140v-4.827ZM9.655 91.724H4.828v4.828h4.827v-4.828Z"/>
  <path fill="#000" fill-opacity=".88" d="M14.483 91.724H9.655v4.828h4.828v-4.828Zm9.655 0H19.31v4.828h4.828v-4.828Zm14.482 0h-4.827v4.828h4.828v-4.828Zm4.828 0h-4.827v4.828h4.827v-4.828Zm4.828 0h-4.828v4.828h4.828v-4.828Zm14.482 0h-4.827v4.828h4.828v-4.828Zm9.656 0h-4.828v4.828h4.828v-4.828Zm4.827 0h-4.827v4.828h4.827v-4.828Zm9.656 0h-4.828v4.828h4.828v-4.828Z"/>
  <path fill="#000" fill-opacity=".88" d="M91.724 91.724h-4.828v4.828h4.828v-4.828Zm4.828 0h-4.828v4.828h4.828v-4.828Zm4.827 0h-4.827v4.828h4.827v-4.828Z"/>
  <path fill="#000" fill-opacity=".88" d="M106.207 91.724h-4.828v4.828h4.828v-4.828Zm4.827 0h-4.827v4.828h4.827v-4.828Zm4.828 0h-4.828v4.828h4.828v-4.828Zm4.828 0h-4.828v4.828h4.828v-4.828Zm19.31 0h-4.828v4.828H140v-4.828ZM4.827 96.552H0v4.827h4.827v-4.827Zm4.828 0H4.828v4.827h4.827v-4.827Z"/>
  <path fill="#000" fill-opacity=".88" d="M14.483 96.552H9.655v4.827h4.828v-4.827Zm14.482 0h-4.827v4.827h4.827v-4.827Zm4.828 0h-4.828v4.827h4.828v-4.827Zm4.827 0h-4.827v4.827h4.828v-4.827Zm19.31 0h-4.827v4.827h4.828v-4.827Zm4.828 0h-4.827v4.827h4.828v-4.827Zm9.656 0h-4.828v4.827h4.828v-4.827Zm4.827 0h-4.827v4.827h4.827v-4.827Zm9.656 0h-4.828v4.827h4.828v-4.827Z"/>
  <path fill="#000" fill-opacity=".88" d="M91.724 96.552h-4.828v4.827h4.828v-4.827Zm9.655 0h-4.827v4.827h4.827v-4.827Z"/>
  <path fill="#000" fill-opacity=".88" d="M106.207 96.552h-4.828v4.827h4.828v-4.827Zm4.827 0h-4.827v4.827h4.827v-4.827Zm4.828 0h-4.828v4.827h4.828v-4.827Zm4.828 0h-4.828v4.827h4.828v-4.827Zm4.827 0h-4.827v4.827h4.827v-4.827Zm14.483 0h-4.828v4.827H140v-4.827Zm-96.552 4.827h-4.827v4.828h4.827v-4.828Zm4.828 0h-4.828v4.828h4.828v-4.828Zm4.827 0h-4.827v4.828h4.827v-4.828Zm24.138 0h-4.827v4.828h4.827v-4.828Zm14.483 0h-4.828v4.828h4.828v-4.828Zm4.828 0h-4.828v4.828h4.828v-4.828Zm4.827 0h-4.827v4.828h4.827v-4.828Zm19.311 0h-4.828v4.828h4.828v-4.828Zm4.827 0h-4.827v4.828h4.827v-4.828Zm4.828 0h-4.828v4.828h4.828v-4.828ZM4.827 106.207H0v4.828h4.827v-4.828Zm4.828 0H4.828v4.828h4.827v-4.828Z"/>
  <path fill="#000" fill-opacity=".88" d="M14.483 106.207H9.655v4.828h4.828v-4.828Z"/>
  <path fill="#000" fill-opacity=".88" d="M19.31 106.207h-4.827v4.828h4.827v-4.828Zm4.828 0H19.31v4.828h4.828v-4.828Zm4.827 0h-4.827v4.828h4.827v-4.828Zm4.828 0h-4.828v4.828h4.828v-4.828Zm28.965 0h-4.827v4.828h4.828v-4.828Z"/>
  <path fill="#000" fill-opacity=".88" d="M67.586 106.207h-4.828v4.828h4.828v-4.828Zm24.138 0h-4.828v4.828h4.828v-4.828Zm4.828 0h-4.828v4.828h4.828v-4.828Zm4.827 0h-4.827v4.828h4.827v-4.828Zm9.655 0h-4.827v4.828h4.827v-4.828Zm9.656 0h-4.828v4.828h4.828v-4.828Zm19.31 0h-4.828v4.828H140v-4.828ZM4.827 111.035H0v4.827h4.827v-4.827Zm28.966 0h-4.828v4.827h4.828v-4.827Zm14.483 0h-4.828v4.827h4.828v-4.827Zm4.827 0h-4.827v4.827h4.827v-4.827Zm9.655 0h-4.827v4.827h4.828v-4.827Zm9.656 0h-4.828v4.827h4.828v-4.827Zm4.827 0h-4.827v4.827h4.827v-4.827Zm19.311 0h-4.828v4.827h4.828v-4.827Zm4.827 0h-4.827v4.827h4.827v-4.827Zm19.311 0h-4.828v4.827h4.828v-4.827Zm4.827 0h-4.827v4.827h4.827v-4.827Zm4.828 0h-4.828v4.827h4.828v-4.827Zm4.827 0h-4.827v4.827h4.827v-4.827ZM4.827 115.862H0v4.828h4.827v-4.828Zm9.656 0H9.655v4.828h4.828v-4.828Z"/>
  <path fill="#000" fill-opacity=".88" d="M19.31 115.862h-4.827v4.828h4.827v-4.828Zm4.828 0H19.31v4.828h4.828v-4.828Zm9.655 0h-4.828v4.828h4.828v-4.828Zm9.655 0h-4.827v4.828h4.827v-4.828Zm4.828 0h-4.828v4.828h4.828v-4.828Zm19.31 0h-4.828v4.828h4.828v-4.828Zm9.655 0h-4.827v4.828h4.827v-4.828Zm9.656 0h-4.828v4.828h4.828v-4.828Zm9.655 0h-4.828v4.828h4.828v-4.828Zm4.827 0h-4.827v4.828h4.827v-4.828Z"/>
  <path fill="#000" fill-opacity=".88" d="M106.207 115.862h-4.828v4.828h4.828v-4.828Zm4.827 0h-4.827v4.828h4.827v-4.828Zm4.828 0h-4.828v4.828h4.828v-4.828Zm4.828 0h-4.828v4.828h4.828v-4.828Zm9.655 0h-4.828v4.828h4.828v-4.828Zm9.655 0h-4.828v4.828H140v-4.828ZM4.827 120.69H0v4.827h4.827v-4.827Zm9.656 0H9.655v4.827h4.828v-4.827Z"/>
  <path fill="#000" fill-opacity=".88" d="M19.31 120.69h-4.827v4.827h4.827v-4.827Zm4.828 0H19.31v4.827h4.828v-4.827Zm9.655 0h-4.828v4.827h4.828v-4.827Zm24.137 0h-4.827v4.827h4.828v-4.827Zm9.656 0h-4.828v4.827h4.828v-4.827Zm14.483 0H77.24v4.827h4.828v-4.827Zm9.655 0h-4.828v4.827h4.828v-4.827Zm4.828 0h-4.828v4.827h4.828v-4.827Zm4.827 0h-4.827v4.827h4.827v-4.827Z"/>
  <path fill="#000" fill-opacity=".88" d="M106.207 120.69h-4.828v4.827h4.828v-4.827Zm4.827 0h-4.827v4.827h4.827v-4.827Zm9.656 0h-4.828v4.827h4.828v-4.827Zm14.482 0h-4.827v4.827h4.827v-4.827Zm4.828 0h-4.828v4.827H140v-4.827ZM4.827 125.517H0v4.828h4.827v-4.828Zm9.656 0H9.655v4.828h4.828v-4.828Z"/>
  <path fill="#000" fill-opacity=".88" d="M19.31 125.517h-4.827v4.828h4.827v-4.828Zm4.828 0H19.31v4.828h4.828v-4.828Zm9.655 0h-4.828v4.828h4.828v-4.828Zm9.655 0h-4.827v4.828h4.827v-4.828Zm4.828 0h-4.828v4.828h4.828v-4.828Zm4.827 0h-4.827v4.828h4.827v-4.828Zm14.483 0h-4.828v4.828h4.828v-4.828Zm4.828 0h-4.828v4.828h4.828v-4.828Zm4.827 0h-4.827v4.828h4.827v-4.828Zm9.656 0h-4.828v4.828h4.828v-4.828Zm9.655 0h-4.828v4.828h4.828v-4.828Zm4.827 0h-4.827v4.828h4.827v-4.828Zm28.966 0h-4.828v4.828h4.828v-4.828Zm4.827 0h-4.827v4.828h4.827v-4.828ZM4.827 130.345H0v4.828h4.827v-4.828Zm28.966 0h-4.828v4.828h4.828v-4.828Zm9.655 0h-4.827v4.828h4.827v-4.828Zm4.828 0h-4.828v4.828h4.828v-4.828Zm19.31 0h-4.828v4.828h4.828v-4.828Zm19.311 0h-4.828v4.828h4.828v-4.828Zm14.482 0h-4.827v4.828h4.827v-4.828Zm24.138 0h-4.827v4.828h4.827v-4.828Zm4.828 0h-4.828v4.828h4.828v-4.828ZM4.827 135.173H0V140h4.827v-4.827Zm4.828 0H4.828V140h4.827v-4.827Z"/>
  <path fill="#000" fill-opacity=".88" d="M14.483 135.173H9.655V140h4.828v-4.827Z"/>
  <path fill="#000" fill-opacity=".88" d="M19.31 135.173h-4.827V140h4.827v-4.827Zm4.828 0H19.31V140h4.828v-4.827Zm4.827 0h-4.827V140h4.827v-4.827Zm4.828 0h-4.828V140h4.828v-4.827Zm9.655 0h-4.827V140h4.827v-4.827Zm14.482 0h-4.827V140h4.828v-4.827Zm4.828 0h-4.827V140h4.828v-4.827Z"/>
  <path fill="#000" fill-opacity=".88" d="M67.586 135.173h-4.828V140h4.828v-4.827Zm4.828 0h-4.828V140h4.828v-4.827Zm4.827 0h-4.827V140h4.827v-4.827Zm14.483 0h-4.828V140h4.828v-4.827Zm38.621 0h-4.828V140h4.828v-4.827Zm4.827 0h-4.827V140h4.827v-4.827Z"/>
</svg>
